<?xml version="1.0" encoding="iso-8859-1"?>
<!-- Generator: Adobe Illustrator 16.0.0, SVG Export Plug-In . SVG Version: 6.00 Build 0)  -->
<!DOCTYPE svg PUBLIC "-//W3C//DTD SVG 1.1//EN" "http://www.w3.org/Graphics/SVG/1.1/DTD/svg11.dtd">
<svg version="1.1" id="Capa_1" xmlns="http://www.w3.org/2000/svg" xmlns:xlink="http://www.w3.org/1999/xlink" x="0px" y="0px"
	 width="612px" height="612px" viewBox="0 0 612 612" style="enable-background:new 0 0 612 612;" xml:space="preserve">
<g>
	<g id="Rectangle_9_copy">
		<g>
			<path d="M370.376,338.352c31.687-28.943,51.693-70.464,51.693-116.765c0-87.411-70.866-158.276-158.276-158.276
				s-158.276,70.865-158.276,158.276c0,46.301,20.006,87.822,51.693,116.765C64.629,358.832,0,405.134,0,459
				c0,72.85,118.105,131.896,263.793,131.896S527.586,531.85,527.586,459C527.586,405.134,462.957,358.832,370.376,338.352z
				 M126.579,221.586c0-75.783,61.432-137.226,137.214-137.226s137.215,61.432,137.215,137.226
				c0,75.782-61.433,137.214-137.215,137.214S126.579,297.369,126.579,221.586z M263.793,569.793
				c-134.039,0-242.689-49.604-242.689-110.793c0-47.588,65.737-88.159,158.012-103.85c24.511,15.574,53.497,24.712,84.677,24.712
				c31.181,0,60.166-9.138,84.678-24.712c92.274,15.69,158.012,56.262,158.012,103.85
				C506.482,520.189,397.832,569.793,263.793,569.793z M538.138,94.965V21.104h-21.104v73.862h-73.861v21.104h73.861v73.862h21.104
				v-73.862H612V94.965H538.138z"/>
		</g>
	</g>
</g>
<g>
</g>
<g>
</g>
<g>
</g>
<g>
</g>
<g>
</g>
<g>
</g>
<g>
</g>
<g>
</g>
<g>
</g>
<g>
</g>
<g>
</g>
<g>
</g>
<g>
</g>
<g>
</g>
<g>
</g>
</svg>
